<svg xmlns="http://www.w3.org/2000/svg" width="3537" height="436" viewBox="0 0 3537 436" fill="none"><path d="M0 436.001L261.411 52.3096L522.822 434.85H446.049L262.563 167.417L77.5404 436.001H0Z" fill="#DC4141" style="fill:#DC4141;fill:color(display-p3 0.8636 0.2564 0.2564);fill-opacity:1;"/><path d="M172.178 383.691L433.589 0L695 382.54H627.44L434.74 115.107L249.718 383.691H172.178Z" fill="#DC4141" style="fill:#DC4141;fill:color(display-p3 0.8636 0.2564 0.2564);fill-opacity:1;"/><path d="M3535 411.696H3536V410.696V357.282V356.282H3535H3381.23V237.509H3525.26H3526.26V236.509V183.621V182.621H3525.26H3381.23V80.1615H3535H3536V79.1615V26.0107V25.0107H3535H3317.06H3316.06V26.0107V410.696V411.696H3317.06H3535Z" fill="#043CB5" stroke="#043CB5" style="fill:#043CB5;fill:color(display-p3 0.0157 0.2353 0.7098);fill-opacity:1;stroke:#043CB5;stroke:color(display-p3 0.0157 0.2353 0.7098);stroke-opacity:1;" stroke-width="2"/><path d="M3146.31 240.926C3158.97 235.682 3170.87 228.772 3182.02 220.198C3193.55 211.336 3202.85 200.171 3209.93 186.718C3217.05 173.211 3220.58 156.904 3220.58 137.838C3220.58 112.266 3215.2 91.1011 3204.36 74.4089C3193.7 57.7068 3177.36 45.3071 3155.44 37.1776C3133.71 29.0526 3106.2 25.0107 3072.97 25.0107H2964.79H2963.79V26.0107V410.696V411.696H2964.79H3027.96H3028.96V410.696V257.506H3089.25L3181.87 411.212L3182.16 411.696H3182.73H3254.06H3255.89L3254.9 410.156L3146.31 240.926ZM3134.72 187.319L3134.71 187.323C3121.82 197.977 3100.87 203.408 3071.65 203.408H3028.96V79.6352H3068.76C3098.17 79.6352 3119.69 84.2803 3133.48 93.4145L3133.49 93.4176C3147.33 102.474 3154.35 117.885 3154.35 139.943C3154.35 160.944 3147.77 176.677 3134.72 187.319Z" fill="#043CB5" stroke="#043CB5" style="fill:#043CB5;fill:color(display-p3 0.0157 0.2353 0.7098);fill-opacity:1;stroke:#043CB5;stroke:color(display-p3 0.0157 0.2353 0.7098);stroke-opacity:1;" stroke-width="2"/><path d="M2829.95 411.026L2830.19 411.693H2830.89H2898.01H2899.45L2898.95 410.346L2756.03 24.0807L2755.78 23.4277H2755.09H2685.07H2684.38L2684.13 24.0801L2540.95 410.346L2540.45 411.693H2541.88H2608.48H2609.18L2609.42 411.026L2646.82 304.865H2792.55L2829.95 411.026ZM2739.39 144.706L2739.4 144.723L2739.4 144.74L2775.53 248.662H2665.16L2701.55 144.743L2701.55 144.718L2701.56 144.692C2702.79 140.486 2704.54 134.526 2706.82 126.813C2709.28 119.087 2711.74 110.836 2714.2 102.062C2716.4 94.5585 2718.31 87.6676 2719.9 81.3899C2721.46 86.6597 2723.3 92.8527 2725.44 99.9686L2725.44 99.9739C2728.07 108.571 2730.71 117.081 2733.34 125.502L2733.34 125.508C2735.97 133.752 2737.99 140.15 2739.39 144.706Z" fill="#043CB5" stroke="#043CB5" style="fill:#043CB5;fill:color(display-p3 0.0157 0.2353 0.7098);fill-opacity:1;stroke:#043CB5;stroke:color(display-p3 0.0157 0.2353 0.7098);stroke-opacity:1;" stroke-width="2"/><path d="M2411.59 411.026L2411.83 411.693H2412.54H2479.66H2481.09L2480.59 410.346L2337.67 24.0807L2337.43 23.4277H2336.73H2266.71H2266.02L2265.78 24.0801L2122.59 410.346L2122.09 411.693H2123.53H2190.12H2190.83L2191.06 411.026L2228.47 304.865H2374.19L2411.59 411.026ZM2321.03 144.706L2321.04 144.723L2321.05 144.74L2357.17 248.662H2246.8L2283.19 144.743L2283.2 144.718L2283.2 144.692C2284.43 140.486 2286.18 134.526 2288.46 126.813C2290.92 119.087 2293.38 110.836 2295.84 102.062C2298.05 94.5585 2299.95 87.6676 2301.54 81.3899C2303.1 86.6597 2304.95 92.8527 2307.08 99.9686L2307.08 99.9739C2309.72 108.571 2312.35 117.081 2314.98 125.502L2314.98 125.508C2317.61 133.752 2319.63 140.15 2321.03 144.706Z" fill="#043CB5" stroke="#043CB5" style="fill:#043CB5;fill:color(display-p3 0.0157 0.2353 0.7098);fill-opacity:1;stroke:#043CB5;stroke:color(display-p3 0.0157 0.2353 0.7098);stroke-opacity:1;" stroke-width="2"/><path d="M2116.51 26.3408L2116.97 25.0107H2115.56H2050.81H2050.1L2049.87 25.6907L1968.53 266.444C1968.53 266.445 1968.53 266.446 1968.53 266.446C1966.07 273.66 1963.43 282.274 1960.62 292.283C1957.81 302.289 1955.09 312.382 1952.46 322.562L1952.45 322.57L1952.45 322.578C1950.52 330.582 1948.91 337.886 1947.63 344.489C1946.31 337.882 1944.62 330.575 1942.55 322.57C1940.09 312.384 1937.37 302.286 1934.38 292.275C1931.57 282.27 1928.93 273.746 1926.47 266.706C1926.47 266.704 1926.47 266.702 1926.47 266.7L1845.4 25.6919L1845.17 25.0107H1844.45H1779.7H1778.29L1778.76 26.3408L1913.26 411.026L1913.49 411.696H1914.2H1981.06H1981.77L1982 411.026L2116.51 26.3408Z" fill="#043CB5" stroke="#043CB5" style="fill:#043CB5;fill:color(display-p3 0.0157 0.2353 0.7098);fill-opacity:1;stroke:#043CB5;stroke:color(display-p3 0.0157 0.2353 0.7098);stroke-opacity:1;" stroke-width="2"/><path d="M1695.58 362.185L1695.58 362.181L1728.25 298.91L1729.2 299.206C1729.2 299.206 1729.2 299.205 1729.2 299.205C1736.78 274.713 1740.57 247.598 1740.57 217.868C1740.57 177.591 1733.88 142.626 1720.47 113C1707.24 83.1797 1687.28 60.0424 1660.6 43.6189C1633.91 27.1841 1600.46 19 1560.32 19C1519.3 19 1485.24 27.2707 1458.2 43.881C1431.34 60.3046 1411.29 83.443 1398.05 113.266L1398.05 113.269C1385 142.891 1378.49 177.591 1378.49 217.342C1378.49 247.07 1382.19 274.183 1389.59 298.673C1396.99 323.171 1408.11 344.257 1422.94 361.914L1422.95 361.918C1437.97 379.586 1456.79 393.183 1479.39 402.713L1479.39 402.714C1502.17 412.249 1528.98 417 1559.79 417C1590.08 417 1616.54 412.248 1639.14 402.713C1661.74 393.184 1680.56 379.676 1695.58 362.185ZM1645.31 112.666L1645.31 112.672C1663.22 137.878 1672.24 172.906 1672.24 217.868C1672.24 247.428 1668.3 273.006 1660.45 294.622C1652.62 316.029 1640.45 332.516 1623.97 344.137C1607.51 355.566 1586.15 361.323 1559.79 361.323C1533.62 361.323 1512.25 355.568 1495.61 344.136C1479.13 332.514 1466.88 316.025 1458.87 294.615C1450.84 273.001 1446.82 247.426 1446.82 217.868C1446.82 187.957 1450.85 162.385 1458.86 141.126L1458.86 141.124C1466.87 119.716 1479.21 103.316 1495.87 91.8695C1512.68 80.433 1534.14 74.6771 1560.32 74.6771C1599.39 74.6771 1627.64 87.392 1645.31 112.666Z" fill="#043CB5" stroke="#043CB5" style="fill:#043CB5;fill:color(display-p3 0.0157 0.2353 0.7098);fill-opacity:1;stroke:#043CB5;stroke:color(display-p3 0.0157 0.2353 0.7098);stroke-opacity:1;" stroke-width="2"/><path d="M1288.88 411.696H1289.88V410.696V26.0107V25.0107H1288.88H1231.23H1230.23V26.0107V228.352V228.359L1230.23 228.367C1230.41 239.949 1230.67 251.969 1231.02 264.428L1231.02 264.435L1231.02 264.442C1231.55 276.722 1232.08 288.651 1232.6 300.23C1233.11 311.36 1233.53 321.273 1233.88 329.97H1233.63L1045.73 25.4856L1045.43 25.0107H1044.88H967.754H966.754V26.0107V410.696V411.696H967.754H1025.13H1026.13V410.696V209.67V209.656L1026.13 209.642C1025.78 197.01 1025.34 184.553 1024.82 172.271C1024.47 159.987 1023.94 148.053 1023.24 136.469C1022.73 125.285 1022.14 114.673 1021.47 104.632H1022.21L1210.38 411.219L1210.67 411.696H1211.23H1288.88Z" fill="#043CB5" stroke="#043CB5" style="fill:#043CB5;fill:color(display-p3 0.0157 0.2353 0.7098);fill-opacity:1;stroke:#043CB5;stroke:color(display-p3 0.0157 0.2353 0.7098);stroke-opacity:1;" stroke-width="2"/><path d="M794 410.696V411.696H795H858.172H859.172V410.696V26.0107V25.0107H858.172H795H794V26.0107V410.696Z" fill="#043CB5" stroke="#043CB5" style="fill:#043CB5;fill:color(display-p3 0.0157 0.2353 0.7098);fill-opacity:1;stroke:#043CB5;stroke:color(display-p3 0.0157 0.2353 0.7098);stroke-opacity:1;" stroke-width="2"/></svg>